<?xml version="1.0" encoding="UTF-8" standalone="no"?>
<!DOCTYPE svg PUBLIC "-//W3C//DTD SVG 1.1//EN"
 "http://www.w3.org/Graphics/SVG/1.1/DTD/svg11.dtd">
<!-- Generated by graphviz version 2.38.0 (20140413.2041)
 -->
<!-- Title: G Pages: 1 -->
<svg width="435pt" height="387pt"
 viewBox="0.00 0.00 435.00 387.00" xmlns="http://www.w3.org/2000/svg" xmlns:xlink="http://www.w3.org/1999/xlink">
<g id="graph0" class="graph" transform="scale(1 1) rotate(0) translate(4 383)">
<title>G</title>
<polygon fill="white" stroke="none" points="-4,4 -4,-383 431,-383 431,4 -4,4"/>
<!-- 1979991122328 -->
<g id="node1" class="node"><title>1979991122328</title>
<polygon fill="none" stroke="black" points="82,-332.5 82,-378.5 345,-378.5 345,-332.5 82,-332.5"/>
<text text-anchor="middle" x="148.5" y="-351.8" font-family="Times New Roman,serif" font-size="14.00">input_1: InputLayer</text>
<polyline fill="none" stroke="black" points="215,-332.5 215,-378.5 "/>
<text text-anchor="middle" x="244" y="-363.3" font-family="Times New Roman,serif" font-size="14.00">input:</text>
<polyline fill="none" stroke="black" points="215,-355.5 273,-355.5 "/>
<text text-anchor="middle" x="244" y="-340.3" font-family="Times New Roman,serif" font-size="14.00">output:</text>
<polyline fill="none" stroke="black" points="273,-332.5 273,-378.5 "/>
<text text-anchor="middle" x="309" y="-363.3" font-family="Times New Roman,serif" font-size="14.00">(None, 6)</text>
<polyline fill="none" stroke="black" points="273,-355.5 345,-355.5 "/>
<text text-anchor="middle" x="309" y="-340.3" font-family="Times New Roman,serif" font-size="14.00">(None, 6)</text>
</g>
<!-- 1980331034496 -->
<g id="node2" class="node"><title>1980331034496</title>
<polygon fill="none" stroke="black" points="48,-249.5 48,-295.5 379,-295.5 379,-249.5 48,-249.5"/>
<text text-anchor="middle" x="133.5" y="-268.8" font-family="Times New Roman,serif" font-size="14.00">embedding_1: Embedding</text>
<polyline fill="none" stroke="black" points="219,-249.5 219,-295.5 "/>
<text text-anchor="middle" x="248" y="-280.3" font-family="Times New Roman,serif" font-size="14.00">input:</text>
<polyline fill="none" stroke="black" points="219,-272.5 277,-272.5 "/>
<text text-anchor="middle" x="248" y="-257.3" font-family="Times New Roman,serif" font-size="14.00">output:</text>
<polyline fill="none" stroke="black" points="277,-249.5 277,-295.5 "/>
<text text-anchor="middle" x="328" y="-280.3" font-family="Times New Roman,serif" font-size="14.00">(None, 6)</text>
<polyline fill="none" stroke="black" points="277,-272.5 379,-272.5 "/>
<text text-anchor="middle" x="328" y="-257.3" font-family="Times New Roman,serif" font-size="14.00">(None, 6, 300)</text>
</g>
<!-- 1979991122328&#45;&gt;1980331034496 -->
<g id="edge1" class="edge"><title>1979991122328&#45;&gt;1980331034496</title>
<path fill="none" stroke="black" d="M213.5,-332.366C213.5,-324.152 213.5,-314.658 213.5,-305.725"/>
<polygon fill="black" stroke="black" points="217,-305.607 213.5,-295.607 210,-305.607 217,-305.607"/>
</g>
<!-- 1980331034384 -->
<g id="node3" class="node"><title>1980331034384</title>
<polygon fill="none" stroke="black" points="0,-166.5 0,-212.5 427,-212.5 427,-166.5 0,-166.5"/>
<text text-anchor="middle" x="133.5" y="-185.8" font-family="Times New Roman,serif" font-size="14.00">bidirectional_1(gru_1): Bidirectional(GRU)</text>
<polyline fill="none" stroke="black" points="267,-166.5 267,-212.5 "/>
<text text-anchor="middle" x="296" y="-197.3" font-family="Times New Roman,serif" font-size="14.00">input:</text>
<polyline fill="none" stroke="black" points="267,-189.5 325,-189.5 "/>
<text text-anchor="middle" x="296" y="-174.3" font-family="Times New Roman,serif" font-size="14.00">output:</text>
<polyline fill="none" stroke="black" points="325,-166.5 325,-212.5 "/>
<text text-anchor="middle" x="376" y="-197.3" font-family="Times New Roman,serif" font-size="14.00">(None, 6, 300)</text>
<polyline fill="none" stroke="black" points="325,-189.5 427,-189.5 "/>
<text text-anchor="middle" x="376" y="-174.3" font-family="Times New Roman,serif" font-size="14.00">(None, 6, 256)</text>
</g>
<!-- 1980331034496&#45;&gt;1980331034384 -->
<g id="edge2" class="edge"><title>1980331034496&#45;&gt;1980331034384</title>
<path fill="none" stroke="black" d="M213.5,-249.366C213.5,-241.152 213.5,-231.658 213.5,-222.725"/>
<polygon fill="black" stroke="black" points="217,-222.607 213.5,-212.607 210,-222.607 217,-222.607"/>
</g>
<!-- 1980334512112 -->
<g id="node4" class="node"><title>1980334512112</title>
<polygon fill="none" stroke="black" points="77,-83.5 77,-129.5 350,-129.5 350,-83.5 77,-83.5"/>
<text text-anchor="middle" x="133.5" y="-102.8" font-family="Times New Roman,serif" font-size="14.00">flatten_1: Flatten</text>
<polyline fill="none" stroke="black" points="190,-83.5 190,-129.5 "/>
<text text-anchor="middle" x="219" y="-114.3" font-family="Times New Roman,serif" font-size="14.00">input:</text>
<polyline fill="none" stroke="black" points="190,-106.5 248,-106.5 "/>
<text text-anchor="middle" x="219" y="-91.3" font-family="Times New Roman,serif" font-size="14.00">output:</text>
<polyline fill="none" stroke="black" points="248,-83.5 248,-129.5 "/>
<text text-anchor="middle" x="299" y="-114.3" font-family="Times New Roman,serif" font-size="14.00">(None, 6, 256)</text>
<polyline fill="none" stroke="black" points="248,-106.5 350,-106.5 "/>
<text text-anchor="middle" x="299" y="-91.3" font-family="Times New Roman,serif" font-size="14.00">(None, 1536)</text>
</g>
<!-- 1980331034384&#45;&gt;1980334512112 -->
<g id="edge3" class="edge"><title>1980331034384&#45;&gt;1980334512112</title>
<path fill="none" stroke="black" d="M213.5,-166.366C213.5,-158.152 213.5,-148.658 213.5,-139.725"/>
<polygon fill="black" stroke="black" points="217,-139.607 213.5,-129.607 210,-139.607 217,-139.607"/>
</g>
<!-- 1980334511216 -->
<g id="node5" class="node"><title>1980334511216</title>
<polygon fill="none" stroke="black" points="83.5,-0.5 83.5,-46.5 343.5,-46.5 343.5,-0.5 83.5,-0.5"/>
<text text-anchor="middle" x="137" y="-19.8" font-family="Times New Roman,serif" font-size="14.00">dense_1: Dense</text>
<polyline fill="none" stroke="black" points="190.5,-0.5 190.5,-46.5 "/>
<text text-anchor="middle" x="219.5" y="-31.3" font-family="Times New Roman,serif" font-size="14.00">input:</text>
<polyline fill="none" stroke="black" points="190.5,-23.5 248.5,-23.5 "/>
<text text-anchor="middle" x="219.5" y="-8.3" font-family="Times New Roman,serif" font-size="14.00">output:</text>
<polyline fill="none" stroke="black" points="248.5,-0.5 248.5,-46.5 "/>
<text text-anchor="middle" x="296" y="-31.3" font-family="Times New Roman,serif" font-size="14.00">(None, 1536)</text>
<polyline fill="none" stroke="black" points="248.5,-23.5 343.5,-23.5 "/>
<text text-anchor="middle" x="296" y="-8.3" font-family="Times New Roman,serif" font-size="14.00">(None, 5989)</text>
</g>
<!-- 1980334512112&#45;&gt;1980334511216 -->
<g id="edge4" class="edge"><title>1980334512112&#45;&gt;1980334511216</title>
<path fill="none" stroke="black" d="M213.5,-83.3664C213.5,-75.1516 213.5,-65.6579 213.5,-56.7252"/>
<polygon fill="black" stroke="black" points="217,-56.6068 213.5,-46.6068 210,-56.6069 217,-56.6068"/>
</g>
</g>
</svg>
